#!OML:ASF F:\VICON\USERDATA\INSTALL\rory3\rory3.ASF
:FULLY-SPECIFIED
:DEGREES
3390
root 10.9356 18.608 1.02116 -167.564 -30.9333 168.879
lowerback 15.4942 -0.228094 6.42936
upperback 7.07149 -0.509163 7.29675
thorax -1.07087 -0.764141 4.17534
lowerneck -0.276152 -11.5716 -6.1718
upperneck 20.9233 -19.3993 7.36739
head 7.83619 -9.63439 1.84769
rclavicle -5.725e-014 -1.33583e-013
rhumerus 14.9882 -7.0476 -84.2771
rradius 39.2349
rwrist 19.0771
rhand -72.4236 -78.1791
rfingers 7.12502
rthumb -43.8764 -257.892
lclavicle -5.725e-014 -1.33583e-013
lhumerus 1.89975 -41.2955 84.8083
lradius 117.662
lwrist 33.9541
lhand -20.5636 14.0187
lfingers 7.12502
lthumb 5.7957 43.9195
rfemur -23.4726 18.1619 6.3742
rtibia 37.6147
rfoot -22.096 -1.50385
rtoes -1.30463
lfemur -23.5089 3.92491 -20.9303
ltibia 33.3925
lfoot -8.69064 9.20501
ltoes -4.46307
3391
root 10.9031 18.6193 0.994561 -168.149 -30.43 168.578
lowerback 15.9147 -0.213883 5.98845
upperback 7.33579 -0.597192 7.4262
thorax -1.00556 -0.846187 4.58713
lowerneck -0.388343 -11.6228 -6.14488
upperneck 20.6823 -19.3717 7.22334
head 7.75514 -9.62516 1.80187
rclavicle 4.77083e-014 -1.59028e-014
rhumerus 15.1309 -7.04425 -83.8109
rradius 38.8948
rwrist 19.0278
rhand -72.7742 -6.54044
rfingers 7.12502
rthumb -44.2034 -390.347
lclavicle 4.77083e-014 -1.59028e-014
lhumerus 1.98086 -41.319 85.2923
lradius 117.235
lwrist 33.7485
lhand -20.708 13.9402
lfingers 7.12502
lthumb 5.65627 43.8447
rfemur -22.5195 18.6801 6.2494
rtibia 37.4494
rfoot -22.2765 -1.57994
rtoes -1.73577
lfemur -22.5723 3.34425 -21.2396
ltibia 32.7233
lfoot -8.94902 9.20341
ltoes -3.98078
3392
root 10.8703 18.624 0.98502 -168.094 -29.5855 168.718
lowerback 15.7655 -0.196625 5.97026
upperback 7.29289 -0.587435 7.41275
thorax -0.973621 -0.840333 4.57711
lowerneck -0.470874 -11.554 -6.01187
upperneck 20.6701 -19.2783 7.17121
head 7.73963 -9.57837 1.77108
rclavicle -5.88403e-014 2.8625e-014
rhumerus 15.0869 -6.8546 -83.6296
rradius 38.5408
rwrist 18.9772
rhand -72.7381 34.9836
rfingers 7.12502
rthumb -44.1697 -348.836
lclavicle -5.88403e-014 2.8625e-014
lhumerus 1.79373 -41.2823 85.5167
lradius 116.894
lwrist 33.5039
lhand -20.8957 14.0706
lfingers 7.12502
lthumb 5.47508 43.9799
rfemur -22.8235 19.1178 6.03757
rtibia 37.319
rfoot -22.1071 -1.27663
rtoes -1.0456
lfemur -22.7276 3.04044 -21.2904
ltibia 32.1127
lfoot -9.06156 9.41944
ltoes -3.00171
3393
root 10.8358 18.6289 0.97698 -168.011 -28.8087 168.65
lowerback 15.728 -0.162697 5.75994
upperback 7.22082 -0.563365 7.43246
thorax -1.03341 -0.831851 4.71328
lowerneck -0.312026 -11.5402 -5.91244
upperneck 20.479 -19.2266 7.057
head 7.62314 -9.57007 1.74632
rclavicle 1.11319e-014 -3.81667e-014
rhumerus 14.8815 -6.48208 -83.1362
rradius 38.3
rwrist 18.4461
rhand -72.4643 66.2868
rfingers 7.12502
rthumb -43.9143 -317.628
lclavicle 1.11319e-014 -3.81667e-014
lhumerus 1.61124 -41.2957 85.8952
lradius 116.522
lwrist 33.4065
lhand -20.9207 13.8924
lfingers 7.12502
lthumb 5.45094 43.8023
rfemur -22.9949 19.373 5.68653
rtibia 37.1939
rfoot -21.9629 -0.970368
rtoes 0.324171
lfemur -22.8933 2.63283 -21.5048
ltibia 31.6095
lfoot -9.05198 9.5045
ltoes -2.85876
3394
root 10.8014 18.6268 0.964487 -168.251 -28.2492 168.596
lowerback 15.8816 -0.197925 5.63271
upperback 7.33253 -0.663794 7.52903
thorax -0.987466 -0.903497 4.9099
lowerneck -0.411573 -11.5351 -5.97245
upperneck 20.2426 -19.1388 7.00532
head 7.55542 -9.53298 1.74754
rclavicle 2.06736e-014 1.20861e-013
rhumerus 14.8771 -6.10478 -82.6365
rradius 38.0479
rwrist 18.2185
rhand -72.267 65.3998
rfingers 7.12502
rthumb -43.7302 -318.583
lclavicle 2.06736e-014 1.20861e-013
lhumerus 1.79772 -41.3515 86.0741
lradius 116.094
lwrist 33.2727
lhand -20.7954 13.4584
lfingers 7.12502
lthumb 5.5719 43.3652
rfemur -22.6912 19.5916 5.56806
rtibia 37.0519
rfoot -21.9057 -0.743992
rtoes 1.9694
lfemur -22.8018 2.11915 -21.6127
ltibia 31.2386
lfoot -8.9133 9.36115
ltoes -3.60961
3395
root 10.7692 18.6269 0.954396 -168.341 -27.6835 168.992
lowerback 15.7812 -0.237793 5.92014
upperback 7.31608 -0.714472 7.67943
thorax -0.943339 -0.937627 4.91596
lowerneck -0.541369 -11.5099 -6.06744
upperneck 20.1148 -19.0478 6.95441
head 7.5322 -9.49592 1.74806
rclavicle 3.81667e-014 6.36111e-014
rhumerus 14.7559 -5.83384 -82.3051
rradius 37.8952
rwrist 18.3072
rhand -72.3576 31.0853
rfingers 7.12502
rthumb -43.8148 -352.866
lclavicle 3.81667e-014 6.36111e-014
lhumerus 1.90982 -41.4423 86.2134
lradius 115.706
lwrist 33.2849
lhand -20.7658 12.9421
lfingers 7.12502
lthumb 5.60049 42.8481
rfemur -22.8679 20.0547 5.71714
rtibia 36.8935
rfoot -21.7364 -0.713049
rtoes 2.14037
lfemur -23.1704 1.6066 -21.2736
ltibia 30.9249
lfoot -8.88265 9.26716
ltoes -4.58073
3396
root 10.7403 18.6363 0.942587 -168.32 -27.2297 169.461
lowerback 15.6486 -0.299571 6.32252
upperback 7.10553 -0.723319 7.75502
thorax -1.09477 -0.933238 4.77174
lowerneck -0.355633 -11.463 -6.03274
upperneck 20.0622 -19.0292 7.00088
head 7.48263 -9.4987 1.77469
rclavicle 3.33958e-014 -8.5875e-014
rhumerus 14.2507 -5.6728 -82.03
rradius 37.7293
rwrist 18.2732
rhand -72.3743 8.77781
rfingers 7.12502
rthumb -43.8304 -375.168
lclavicle 3.33958e-014 -8.5875e-014
lhumerus 1.70369 -41.8329 86.4018
lradius 115.383
lwrist 33.4061
lhand -21.1465 12.8124
lfingers 7.12502
lthumb 5.23285 42.7278
rfemur -23.143 20.6601 5.91932
rtibia 36.7188
rfoot -21.6277 -0.849142
rtoes 0.53696
lfemur -23.7385 1.05108 -20.8057
ltibia 30.6347
lfoot -8.80547 9.04869
ltoes -5.33486
3397
root 10.7106 18.6368 0.922513 -168.416 -26.7362 169.684
lowerback 15.6447 -0.351681 6.44287
upperback 7.01767 -0.771217 7.80007
thorax -1.18301 -0.958906 4.76249
lowerneck -0.29144 -11.4358 -5.97091
upperneck 20.082 -19.0133 6.91777
head 7.46261 -9.50302 1.7464
rclavicle -3.33958e-014 9.54166e-015
rhumerus 13.8269 -5.45881 -81.7216
rradius 37.3749
rwrist 18.3372
rhand -72.372 44.9875
rfingers 7.12502
rthumb -43.8282 -338.959
lclavicle -3.33958e-014 9.54166e-015
lhumerus 1.64963 -42.1917 86.5247
lradius 115.057
lwrist 33.4841
lhand -21.4228 12.9167
lfingers 7.12502
lthumb 4.96608 42.8385
rfemur -23.0999 21.2218 5.98752
rtibia 36.5378
rfoot -21.5389 -0.936837
rtoes -0.576996
lfemur -24.0134 0.565436 -20.5581
ltibia 30.319
lfoot -8.76585 8.74864
ltoes -6.04645
3398
root 10.6793 18.6313 0.901237 -168.632 -26.1834 169.877
lowerback 15.7946 -0.385103 6.49051
upperback 6.98034 -0.80516 7.85952
thorax -1.29855 -0.985287 4.81247
lowerneck -0.151882 -11.4023 -6.05024
upperneck 19.8838 -18.9698 7.02596
head 7.38806 -9.49201 1.81105
rclavicle 4.29375e-014 1.01778e-013
rhumerus 13.4388 -5.13467 -81.3509
rradius 37.0001
rwrist 18.2376
rhand -72.0928 46.4308
rfingers 7.12502
rthumb -43.5675 -337.612
lclavicle 4.29375e-014 1.01778e-013
lhumerus 1.65526 -42.5134 86.5711
lradius 114.748
lwrist 33.5428
lhand -21.5983 12.9973
lfingers 7.12502
lthumb 4.79665 42.923
rfemur -22.9455 21.9084 6.05194
rtibia 36.3758
rfoot -21.4866 -1.05538
rtoes -0.303107
lfemur -24.0859 0.0834575 -20.3307
ltibia 29.9514
lfoot -8.82349 8.33417
ltoes -6.74368
3399
root 10.6469 18.6353 0.884979 -168.708 -25.6096 170.073
lowerback 15.8597 -0.404772 6.56802
upperback 6.92138 -0.816708 7.90693
thorax -1.39378 -0.996391 4.82623
lowerneck -0.146012 -11.3608 -6.05168
upperneck 19.7851 -18.9091 7.05424
head 7.35268 -9.46646 1.82905
rclavicle 4.13472e-014 2.54444e-014
rhumerus 12.8531 -4.74203 -80.9159
rradius 36.9969
rwrist 18.0992
rhand -71.9239 31.2072
rfingers 7.12502
rthumb -43.4098 -352.892
lclavicle 4.13472e-014 2.54444e-014
lhumerus 1.7278 -42.8262 86.5403
lradius 114.488
lwrist 33.5558
lhand -21.7186 13.5222
lfingers 7.12502
lthumb 4.68049 43.4505
rfemur -22.9889 22.4523 6.03233
rtibia 36.2443
rfoot -21.3807 -0.966219
rtoes 0.156617
lfemur -24.3197 -0.526673 -20.076
ltibia 29.5538
lfoot -8.85278 8.02708
ltoes -7.64939
3400
root 10.6066 18.6372 0.872762 -168.764 -25.0676 170.29
lowerback 15.89 -0.454104 6.82072
upperback 6.8856 -0.852911 7.92289
thorax -1.4445 -1.01674 4.7096
lowerneck -0.220398 -11.3382 -6.03385
upperneck 19.7381 -18.8696 7.04029
head 7.34374 -9.44749 1.82181
rclavicle -7.95139e-014 -1.46306e-013
rhumerus 12.145 -4.35371 -80.4931
rradius 37.2389
rwrist 17.9203
rhand -71.8194 13.2587
rfingers 7.12502
rthumb -43.3122 -370.876
lclavicle -7.95139e-014 -1.46306e-013
lhumerus 1.82816 -43.1572 86.5406
lradius 114.317
lwrist 33.3597
lhand -21.8863 14.7094
lfingers 7.12502
lthumb 4.51853 44.6412
rfemur -23.0616 22.7259 6.02051
rtibia 36.1228
rfoot -21.3117 -0.649606
rtoes 0.471345
lfemur -24.5963 -1.2569 -19.7905
ltibia 29.1238
lfoot -8.80198 7.88772
ltoes -8.19669
3401
root 10.5653 18.6376 0.859378 -168.738 -24.595 170.371
lowerback 15.8868 -0.517779 6.97588
upperback 6.85046 -0.91779 7.90517
thorax -1.47777 -1.0487 4.615
lowerneck -0.253553 -11.3591 -5.9197
upperneck 19.6163 -18.8556 6.91985
head 7.28562 -9.44267 1.77256
rclavicle -6.36111e-015 -5.08889e-014
rhumerus 11.6766 -4.02686 -80.0958
rradius 37.0591
rwrist 17.584
rhand -71.5649 14.9694
rfingers 7.12502
rthumb -43.0743 -369.25
lclavicle -6.36111e-015 -5.08889e-014
lhumerus 1.9473 -43.5259 86.5023
lradius 114.077
lwrist 33.3704
lhand -21.7274 14.6345
lfingers 7.12502
lthumb 4.67195 44.563
rfemur -23.1298 22.9729 5.87361
rtibia 35.9877
rfoot -21.2863 -0.386319
rtoes 0.637603
lfemur -24.8768 -2.06486 -19.6185
ltibia 28.6307
lfoot -8.75268 7.67224
ltoes -8.82499
3402
root 10.5243 18.6399 0.843414 -168.748 -24.1803 170.318
lowerback 15.945 -0.603356 6.99827
upperback 6.84648 -1.0266 7.85775
thorax -1.51023 -1.10405 4.57218
lowerneck -0.353584 -11.3728 -5.77165
upperneck 19.6065 -18.8521 6.77277
head 7.27079 -9.43992 1.70089
rclavicle -3.97569e-014 -9.54166e-015
rhumerus 11.2611 -3.69437 -79.7672
rradius 36.7441
rwrist 17.2232
rhand -71.1961 18.5313
rfingers 7.12502
rthumb -42.7293 -365.81
lclavicle -3.97569e-014 -9.54166e-015
lhumerus 2.16964 -43.8788 86.3273
lradius 113.82
lwrist 33.4416
lhand -21.3995 14.5272
lfingers 7.12502
lthumb 4.98862 44.4485
rfemur -23.0504 23.2116 5.66096
rtibia 35.8655
rfoot -21.3613 -0.271159
rtoes 0.467899
lfemur -25.0231 -2.93172 -19.546
ltibia 28.0697
lfoot -8.65733 7.42033
ltoes -9.38115
3403
root 10.4884 18.6438 0.825151 -168.813 -23.5375 170.22
lowerback 16.1479 -0.597904 6.82325
upperback 6.86441 -1.02605 7.76791
thorax -1.60105 -1.10738 4.58092
lowerneck -0.457786 -11.3513 -5.87326
upperneck 19.6914 -18.9085 7.0171
head 7.35431 -9.45455 1.7717
rclavicle -4.6118e-014 -1.90833e-014
rhumerus 10.6 -3.24382 -79.4347
rradius 36.6954
rwrist 16.8659
rhand -70.8683 14.4067
rfingers 7.12502
rthumb -42.4225 -370.04
lclavicle -4.6118e-014 -1.90833e-014
lhumerus 2.37652 -44.2461 86.0805
lradius 113.609
lwrist 33.6178
lhand -21.0398 14.6649
lfingers 7.12502
lthumb 5.33596 44.5777
rfemur -22.9569 23.6475 5.37259
rtibia 35.7325
rfoot -21.4052 -0.0742006
rtoes 0.496299
lfemur -25.0428 -3.70472 -19.5072
ltibia 27.4222
lfoot -8.51543 7.20897
ltoes -9.30163
